<svg xmlns="http://www.w3.org/2000/svg" viewBox="0 0 24 24">
  <path d="M12 6c1.11 0 2-.89 2-2 0-.74-.4-1.39-1-1.73V1h-2v1.27C10.4 2.61 10 3.26 10 4c0 1.11.89 2 2 2zm4.6 9.99l-1.07-1.07-1.08 1.07c-1.3 1.3-3.58 1.31-4.89 0l-1.07-1.07-1.09 1.07C6.75 16.64 5.88 17 4.96 17H4v2h.96c1.17 0 2.31-.39 3.26-1.08 1.88 1.38 4.64 1.38 6.52 0C15.69 18.61 16.83 19 18 19h1v-2h-1c-.92 0-1.79-.36-2.4-.01zM20 9h-7V7h-2v2H4c-1.1 0-2 .9-2 2v4h1.96c.63 0 1.22-.28 1.63-.73L7 12.8l1.38 1.47c.8.85 2.35.85 3.16 0L13 12.8l1.38 1.47c.4.45 1 .73 1.63.73H18V9h2z"/>
</svg>
